<?xml version="1.0" encoding="UTF-8" standalone="no"?>
<svg
   width="800"
   height="800"
   viewBox="0 0 24 24"
   version="1.1"
   id="svg1"
   sodipodi:docname="close.svg"
   inkscape:version="1.3.2 (091e20e, 2023-11-25, custom)"
   xmlns:inkscape="http://www.inkscape.org/namespaces/inkscape"
   xmlns:sodipodi="http://sodipodi.sourceforge.net/DTD/sodipodi-0.dtd"
   xmlns="http://www.w3.org/2000/svg"
   xmlns:svg="http://www.w3.org/2000/svg">
  <sodipodi:namedview
     id="namedview1"
     pagecolor="#ffffff"
     bordercolor="#666666"
     borderopacity="1.0"
     inkscape:showpageshadow="2"
     inkscape:pageopacity="0.0"
     inkscape:pagecheckerboard="0"
     inkscape:deskcolor="#d1d1d1"
     inkscape:zoom="2.23625"
     inkscape:cx="399.77641"
     inkscape:cy="400"
     inkscape:window-width="3840"
     inkscape:window-height="2066"
     inkscape:window-x="1717"
     inkscape:window-y="207"
     inkscape:window-maximized="1"
     inkscape:current-layer="svg1" />
  <defs
     id="defs1" />
  <title
     id="title1">close_fill</title>
  <g
     id="id-1"
     stroke="none"
     stroke-width="1"
     fill="none"
     fill-rule="evenodd"
     style="fill:#000000;fill-opacity:1">
    <g
       id="System"
       transform="translate(-288,-48)"
       style="fill:#000000;fill-opacity:1">
      <g
         id="close_fill"
         transform="translate(288,48)"
         style="fill:#000000;fill-opacity:1">
        <path
           d="m 12,14.1215 5.3032,5.3033 c 0.5858,0.5858 1.5356,0.5858 2.1214,0 0.5858,-0.5858 0.5858,-1.5355 0,-2.1213 l -5.3033,-5.3033 5.3033,-5.3033 c 0.5858,-0.58578 0.5858,-1.53553 0,-2.12132 -0.5858,-0.58578 -1.5356,-0.58578 -2.1214,0 L 12,9.87888 6.69665,4.57557 c -0.58579,-0.58579 -1.53554,-0.58579 -2.12132,0 -0.58579,0.58579 -0.58579,1.53553 0,2.12132 l 5.3033,5.30331 -5.3033,5.3033 c -0.58579,0.5858 -0.58579,1.5355 0,2.1213 0.58578,0.5858 1.53553,0.5858 2.12132,0 z"
           id="id-2"
           fill="#09244B"
           style="fill:#000000;fill-opacity:1" />
      </g>
    </g>
  </g>
</svg>
