<?xml version="1.0" encoding="UTF-8" standalone="no"?>
<!-- Uploaded to: SVG Repo, www.svgrepo.com, Generator: SVG Repo Mixer Tools -->

<svg
   fill="#000000"
   height="800px"
   width="800px"
   version="1.1"
   id="Layer_1"
   viewBox="-143 145 512 512"
   xml:space="preserve"
   sodipodi:docname="facebook-1.svg"
   inkscape:version="1.3.2 (091e20e, 2023-11-25, custom)"
   xmlns:inkscape="http://www.inkscape.org/namespaces/inkscape"
   xmlns:sodipodi="http://sodipodi.sourceforge.net/DTD/sodipodi-0.dtd"
   xmlns="http://www.w3.org/2000/svg"
   xmlns:svg="http://www.w3.org/2000/svg"><defs
   id="defs1" /><sodipodi:namedview
   id="namedview1"
   pagecolor="#ffffff"
   bordercolor="#666666"
   borderopacity="1.0"
   inkscape:showpageshadow="2"
   inkscape:pageopacity="0.0"
   inkscape:pagecheckerboard="0"
   inkscape:deskcolor="#d1d1d1"
   inkscape:zoom="2.23625"
   inkscape:cx="400"
   inkscape:cy="400.22359"
   inkscape:window-width="3840"
   inkscape:window-height="2066"
   inkscape:window-x="1339"
   inkscape:window-y="-11"
   inkscape:window-maximized="1"
   inkscape:current-layer="Layer_1" />
<path
   d="M329,145h-432c-22.1,0-40,17.9-40,40v432c0,22.1,17.9,40,40,40h432c22.1,0,40-17.9,40-40V185C369,162.9,351.1,145,329,145z   M169.5,357.6l-2.9,38.3h-39.3v133H77.7v-133H51.2v-38.3h26.5v-25.7c0-11.3,0.3-28.8,8.5-39.7c8.7-11.5,20.6-19.3,41.1-19.3  c33.4,0,47.4,4.8,47.4,4.8l-6.6,39.2c0,0-11-3.2-21.3-3.2c-10.3,0-19.5,3.7-19.5,14v29.9H169.5z"
   id="path1"
   style="fill:#008b8b;fill-opacity:1;stroke:none;stroke-opacity:1" />
<path
   style="fill:#000000;stroke-width:5.33259"
   d="m 56.120738,799.46696 c -7.0712,-0.7631 -14.717702,-3.01281 -21.079592,-6.2019 C 17.419694,784.43175 5.2170772,768.4195 1.2458234,748.9189 0.48315886,745.17388 0.44717719,729.45395 0.44717719,400 0.44717719,70.546061 0.48315886,54.826111 1.2458234,51.081096 6.4275144,25.636734 25.636734,6.4275144 51.081096,1.2458234 54.826111,0.48315886 70.546061,0.44717719 400,0.44717719 c 329.45395,0 345.17388,0.0359817 348.9189,0.79864621 25.45668,5.1841961 44.65109,24.3786116 49.83526,49.8352726 0.76267,3.745015 0.79866,19.464965 0.79866,348.918904 0,329.45395 -0.036,345.17388 -0.79866,348.9189 -5.11628,25.12336 -23.36362,43.68336 -48.83801,49.67491 l -4.02459,0.94658 -344.10285,0.0477 C 212.53214,799.6144 56.981554,799.55984 56.120738,799.46696 Z M 422.35886,496.1431 V 392.39799 h 30.85523 c 30.74647,0 30.85522,-0.003 30.85522,-0.91113 0,-1.28358 3.95408,-53.76137 4.28629,-56.88652 l 0.27331,-2.57127 h -33.16476 -33.16471 l 0.16189,-25.37731 c 0.15723,-24.64606 0.18953,-25.45118 1.12097,-27.94101 2.54568,-6.80487 7.56046,-10.90897 16.22244,-13.27643 9.42294,-2.57545 24.88186,-1.76899 41.24613,2.15175 2.88988,0.69239 5.25433,1.22079 5.25433,1.17424 0,-0.0466 2.31897,-13.83646 5.15331,-30.64424 2.8343,-16.80777 4.98764,-30.72524 4.7852,-30.92771 -0.66705,-0.66703 -11.80981,-2.9978 -19.77641,-4.13668 -19.82694,-2.83442 -50.74146,-4.23566 -64.55289,-2.92595 -14.48659,1.37374 -26.79182,5.69879 -37.26527,13.09802 -4.78882,3.38317 -12.38615,10.85928 -16.16537,15.90743 -6.87595,9.18465 -10.93697,21.21003 -12.85206,38.05719 -0.58184,5.11852 -0.78369,12.62906 -0.95845,35.66238 l -0.22138,29.17832 H 323.9308 303.40973 v 30.18446 30.18446 h 20.57015 20.57015 V 496.1431 599.88821 h 38.90441 38.90442 z"
   id="path2"
   transform="matrix(0.64,0,0,0.64,-143,145)" /></svg>
