<?xml version="1.0" encoding="UTF-8" standalone="no"?>
<!-- Uploaded to: SVG Repo, www.svgrepo.com, Generator: SVG Repo Mixer Tools -->

<svg
   fill="#000000"
   width="800px"
   height="800px"
   viewBox="0 0 32 32"
   version="1.1"
   id="svg1"
   sodipodi:docname="instagram-1.svg"
   inkscape:version="1.3.2 (091e20e, 2023-11-25, custom)"
   xmlns:inkscape="http://www.inkscape.org/namespaces/inkscape"
   xmlns:sodipodi="http://sodipodi.sourceforge.net/DTD/sodipodi-0.dtd"
   xmlns="http://www.w3.org/2000/svg"
   xmlns:svg="http://www.w3.org/2000/svg">
  <defs
     id="defs1" />
  <sodipodi:namedview
     id="namedview1"
     pagecolor="#ffffff"
     bordercolor="#666666"
     borderopacity="1.0"
     inkscape:showpageshadow="2"
     inkscape:pageopacity="0.0"
     inkscape:pagecheckerboard="0"
     inkscape:deskcolor="#d1d1d1"
     inkscape:zoom="2.23625"
     inkscape:cx="400"
     inkscape:cy="400.22359"
     inkscape:window-width="3840"
     inkscape:window-height="2066"
     inkscape:window-x="1339"
     inkscape:window-y="-11"
     inkscape:window-maximized="1"
     inkscape:current-layer="svg1" />
  <title
     id="title1" />
  <g
     id="Instagram"
     transform="matrix(1.1411618,0,0,1.1411618,-2.2496448,-2.2496448)"
     style="stroke:none;stroke-opacity:1;fill:#000000;fill-opacity:1">
    <path
       d="M 26.49,30 H 5.5 A 3.35,3.35 0 0 1 3,29 3.35,3.35 0 0 1 2,26.52 V 5.5 A 3.35,3.35 0 0 1 3,3 3.35,3.35 0 0 1 5.5,2 h 21 a 3.35,3.35 0 0 1 2.5,1 3.35,3.35 0 0 1 1,2.5 v 21 A 3.52,3.52 0 0 1 26.49,30 Z M 24.74,10.56 A 3.45,3.45 0 0 0 21.26,7.07 H 10.71 A 3.47,3.47 0 0 0 7.23,10.56 V 21.1 a 3.45,3.45 0 0 0 3.48,3.49 h 10.55 a 3.43,3.43 0 0 0 3.48,-3.49 z m -8.73,0.9 a 4.09,4.09 0 0 0 -1.38,0.24 5.36,5.36 0 0 0 -1.24,0.63 H 9 v -0.87 a 2.56,2.56 0 0 1 2.61,-2.62 h 8.75 a 2.63,2.63 0 0 1 1.89,0.75 2.48,2.48 0 0 1 0.75,1.87 v 0.87 H 18.6 A 6.14,6.14 0 0 0 17.38,11.7 3.87,3.87 0 0 0 16,11.46 Z m 4.35,11.41 H 11.61 A 2.48,2.48 0 0 1 9.75,22.09 2.57,2.57 0 0 1 9,20.24 v -7 h 3.49 a 5.49,5.49 0 0 0 -0.63,1.23 3.82,3.82 0 0 0 -0.25,1.4 4.19,4.19 0 0 0 0.39,1.68 5,5 0 0 0 0.93,1.39 4.28,4.28 0 0 0 1.4,0.95 4.24,4.24 0 0 0 1.72,0.35 4.29,4.29 0 0 0 3.08,-1.3 5,5 0 0 0 0.87,-1.39 4.19,4.19 0 0 0 0.35,-1.69 3.82,3.82 0 0 0 -0.25,-1.4 6.37,6.37 0 0 0 -0.6,-1.23 H 23 v 7 a 2.52,2.52 0 0 1 -0.78,1.85 2.57,2.57 0 0 1 -1.86,0.79 z M 16,13.23 a 2.55,2.55 0 0 1 1.85,0.75 2.63,2.63 0 0 1 0,3.74 2.55,2.55 0 0 1 -1.85,0.75 2.63,2.63 0 0 1 -1.9,-0.75 2.66,2.66 0 0 1 0,-3.74 2.63,2.63 0 0 1 1.9,-0.75 z m 3.5,-1.77 h 1.75 V 9.71 h -1.74 z"
       id="path1"
       style="stroke:none;stroke-opacity:1;fill:#000000;fill-opacity:1" />
  </g>
</svg>
