<?xml version="1.0" encoding="iso-8859-1"?>
<!-- Uploaded to: SVG Repo, www.svgrepo.com, Generator: SVG Repo Mixer Tools -->
<svg fill="#000000" height="800px" width="800px" version="1.1" id="Layer_1" xmlns="http://www.w3.org/2000/svg" xmlns:xlink="http://www.w3.org/1999/xlink" 
	 viewBox="0 0 512 512" xml:space="preserve">
<g>
	<g>
		<path d="M507.511,77.994C475.217,43.395,423.62,21.907,372.87,21.907c-43.07,0-84.782,16.001-116.87,44.304
			c-32.088-28.302-73.799-44.304-116.87-44.304c-50.75,0-102.348,21.49-134.642,56.087C1.608,81.086,0,85.156,0,89.385v384
			c0,15.081,18.544,22.456,28.902,11.391c25.794-27.625,69.054-45.478,110.228-45.478c39.533,0,77.685,16.577,104.663,45.478
			c6.857,7.355,18.235,6.591,24.413,0c26.978-28.902,65.131-45.478,104.663-45.478c41.174,0,84.434,17.853,110.228,45.478
			c10.318,11.03,28.902,3.767,28.902-11.391v-384C512,85.156,510.392,81.086,507.511,77.994z M189.217,356.627H89.044
			c-9.217,0-16.696-7.584-16.696-16.807c0-9.223,7.479-16.696,16.696-16.696h100.174c9.217,0,16.696,7.473,16.696,16.696
			C205.913,349.042,198.434,356.627,189.217,356.627z M189.217,289.844H89.044c-9.217,0-16.696-7.584-16.696-16.807
			c0-9.223,7.479-16.696,16.696-16.696h100.174c9.217,0,16.696,7.473,16.696,16.696S198.434,289.844,189.217,289.844z
			 M189.217,223.061H89.044c-9.217,0-16.696-7.584-16.696-16.807s7.479-16.696,16.696-16.696h100.174
			c9.217,0,16.696,7.473,16.696,16.696S198.434,223.061,189.217,223.061z M189.217,156.279H89.044
			c-9.217,0-16.696-7.584-16.696-16.807c0-9.223,7.479-16.696,16.696-16.696h100.174c9.217,0,16.696,7.473,16.696,16.696
			C205.913,148.695,198.434,156.279,189.217,156.279z M422.957,356.627H322.783c-9.217,0-16.696-7.584-16.696-16.807
			c0-9.223,7.479-16.696,16.696-16.696h100.174c9.217,0,16.696,7.473,16.696,16.696
			C439.652,349.042,432.174,356.627,422.957,356.627z M422.957,289.844H322.783c-9.217,0-16.696-7.584-16.696-16.807
			c0-9.223,7.479-16.696,16.696-16.696h100.174c9.217,0,16.696,7.473,16.696,16.696S432.174,289.844,422.957,289.844z
			 M422.957,223.061H322.783c-9.217,0-16.696-7.584-16.696-16.807s7.479-16.696,16.696-16.696h100.174
			c9.217,0,16.696,7.473,16.696,16.696S432.174,223.061,422.957,223.061z M422.957,156.279H322.783
			c-9.217,0-16.696-7.584-16.696-16.807c0-9.223,7.479-16.696,16.696-16.696h100.174c9.217,0,16.696,7.473,16.696,16.696
			C439.652,148.695,432.174,156.279,422.957,156.279z"/>
	</g>
</g>
</svg>